HIERARCHY
ROOT SpineBase
{
  OFFSET 0.000000 0.000000 0.000000
  CHANNELS 6 Xposition Yposition Zposition Zrotation Xrotation Yrotation
  JOINT SpineMid
  {
    OFFSET -0.000000 20.414617 0.000000
    CHANNELS 3 Zrotation Xrotation Yrotation
    JOINT SpineShoulder
    {
      OFFSET 0.277122 14.844615 -0.561479
      CHANNELS 3 Zrotation Xrotation Yrotation
      JOINT Neck
      {
        OFFSET 0.100528 4.829700 -0.497902
        CHANNELS 3 Zrotation Xrotation Yrotation
        JOINT Head
        {
          OFFSET -0.954242 13.490531 -1.839500
          CHANNELS 3 Zrotation Xrotation Yrotation
          End Site
          {
            OFFSET 0 0 0
          }
        }
      }
      JOINT ShoulderLeft
      {
        OFFSET -11.288728 5.476121 10.957330
        CHANNELS 3 Zrotation Xrotation Yrotation
        JOINT ElbowLeft
        {
          OFFSET -22.274013 -10.345145 5.233231
          CHANNELS 3 Zrotation Xrotation Yrotation
          JOINT WristLeft
          {
            OFFSET 16.729788 7.064286 -1.011535
            CHANNELS 3 Zrotation Xrotation Yrotation
            JOINT HandLeft
            {
              OFFSET 3.777911 0.061876 -4.288218
              CHANNELS 3 Zrotation Xrotation Yrotation
              JOINT HandTipLeft
              {
                OFFSET 3.494455 1.196812 -3.149385
                CHANNELS 3 Zrotation Xrotation Yrotation
                End Site
                {
                  OFFSET 0 0 0
                }
              }
              JOINT ThumbLeft
              {
                OFFSET -1.814637 4.742653 -2.309948
                CHANNELS 3 Zrotation Xrotation Yrotation
                End Site
                {
                  OFFSET 0 0 0
                }
              }
            }
          }
        }
      }
      JOINT ShoulderRight
      {
        OFFSET -16.890534 -0.603074 15.945135
        CHANNELS 3 Zrotation Xrotation Yrotation
        JOINT ElbowRight
        {
          OFFSET 10.832632 3.100808 -23.224652
          CHANNELS 3 Zrotation Xrotation Yrotation
          JOINT WristRight
          {
            OFFSET 4.394498 -15.700386 -19.781510
            CHANNELS 3 Zrotation Xrotation Yrotation
            JOINT HandRight
            {
              OFFSET 4.013658 -1.532949 -6.140068
              CHANNELS 3 Zrotation Xrotation Yrotation
              JOINT HandTipRight
              {
                OFFSET -2.636980 -6.377181 -3.273452
                CHANNELS 3 Zrotation Xrotation Yrotation
                End Site
                {
                  OFFSET 0 0 0
                }
              }
              JOINT ThumbRight
              {
                OFFSET 1.081799 -5.614382 0.820913
                CHANNELS 3 Zrotation Xrotation Yrotation
                End Site
                {
                  OFFSET 0 0 0
                }
              }
            }
          }
        }
      }
    }
  }
  JOINT HipLeft
  {
    OFFSET 3.192033 1.096066 -2.545394
    CHANNELS 3 Zrotation Xrotation Yrotation
    JOINT KneeLeft
    {
      OFFSET -36.894922 -0.134369 0.047747
      CHANNELS 3 Zrotation Xrotation Yrotation
      JOINT AnkleLeft
      {
        OFFSET 31.547073 -5.614683 17.249324
        CHANNELS 3 Zrotation Xrotation Yrotation
        JOINT FootLeft
        {
          OFFSET -8.198188 -9.250250 2.588619
          CHANNELS 3 Zrotation Xrotation Yrotation
          End Site
          {
            OFFSET 0 0 0
          }
        }
      }
    }
  }
  JOINT HipRight
  {
    OFFSET -4.311295 -2.960856 -2.039803
    CHANNELS 3 Zrotation Xrotation Yrotation
    JOINT KneeRight
    {
      OFFSET -12.313225 -0.045428 -28.997637
      CHANNELS 3 Zrotation Xrotation Yrotation
      JOINT AnkleRight
      {
        OFFSET -10.423991 -14.647625 19.797355
        CHANNELS 3 Zrotation Xrotation Yrotation
        JOINT FootRight
        {
          OFFSET 1.472716 7.388329 -6.832677
          CHANNELS 3 Zrotation Xrotation Yrotation
          End Site
          {
            OFFSET 0 0 0
          }
        }
      }
    }
  }
}
MOTION
Frames: 10
Frame Time: 0.033333
93.309583 25.722949 394.873370 0.000000 0.000000 -176.145109 0.000000 0.000000 176.145109 -0.000000 0.000000 0.000000 -0.000000 0.000000 0.000000 0.000000 0.000000 0.000000 -0.000000 0.000000 0.000000 -0.000000 0.000000 0.000000 -0.000000 0.000000 0.000000 -0.000000 0.000000 0.000000 0.000000 0.000000 0.000000 0.000000 0.000000 0.000000 -0.000000 0.000000 0.000000 -0.000000 0.000000 0.000000 -0.000000 0.000000 0.000000 -0.000000 0.000000 0.000000 0.000000 0.000000 0.000000 0.000000 0.000000 0.000000 0.000000 0.000000 176.145109 -0.000000 0.000000 0.000000 -0.000000 0.000000 0.000000 0.000000 0.000000 0.000000 0.000000 0.000000 176.145109 -0.000000 0.000000 0.000000 -0.000000 0.000000 0.000000 0.000000 0.000000 0.000000
93.371400 25.829813 394.472933 0.644650 0.802080 -179.814036 -0.352513 -0.171367 179.829999 0.256695 0.429143 0.078098 -3.138033 -2.715223 -0.532285 0.000000 0.000000 0.000000 -1.255787 -1.401565 -0.115481 0.602882 -0.269959 0.735983 -0.599372 0.277666 -0.733110 1.147184 0.756086 0.842929 0.000000 0.000000 0.000000 0.000000 0.000000 0.000000 -1.787011 -2.461357 -0.366459 0.524367 1.063061 0.228208 -1.119246 -1.597777 0.309057 0.237498 3.461308 -0.606486 0.000000 0.000000 0.000000 0.000000 0.000000 0.000000 0.060861 0.803982 177.878466 -1.599211 0.156571 -0.097330 0.941519 -1.344252 3.033881 0.000000 0.000000 0.000000 0.647313 0.799933 179.805005 0.330148 1.008156 -0.278033 -0.617811 1.023826 -0.405774 0.000000 0.000000 0.000000
93.438864 25.898078 394.155621 1.150611 1.437950 176.632594 -0.628040 -0.359239 -176.608897 0.466415 0.797770 0.136895 -5.797192 -5.085982 -1.123935 0.000000 0.000000 0.000000 -3.129706 -2.802909 -0.153139 1.905849 -0.192531 1.109949 -1.421124 0.080254 -2.286303 2.244603 1.695783 2.474078 0.000000 0.000000 0.000000 0.000000 0.000000 0.000000 -3.225303 -4.433365 -0.685428 1.483424 2.362521 -0.208407 -2.398620 -3.168095 1.057035 0.267109 6.189513 -1.056479 0.000000 0.000000 0.000000 0.000000 0.000000 0.000000 -0.035836 1.458560 179.742854 -2.901558 0.216166 -0.076942 1.682175 -2.539511 5.622163 0.000000 0.000000 0.000000 1.064537 1.502780 -176.660996 0.622161 1.802412 -0.463313 -1.105780 1.817887 -0.748217 0.000000 0.000000 0.000000
93.511975 25.927746 393.921433 1.524628 1.915929 173.140945 -0.833800 -0.554882 -173.114207 0.630265 1.106887 0.179024 -7.922515 -7.096242 -1.697338 0.000000 0.000000 0.000000 -4.254672 -3.793110 -0.280891 2.530890 -0.196028 1.353922 -1.934580 -0.048363 -2.794605 2.804757 2.180968 3.039750 0.000000 0.000000 0.000000 0.000000 0.000000 0.000000 -4.321515 -5.932706 -0.927365 1.960842 3.157140 -0.327718 -3.046244 -4.064996 1.352312 0.196493 8.228190 -1.386517 0.000000 0.000000 0.000000 0.000000 0.000000 0.000000 -0.251471 1.947574 -178.201738 -3.898290 0.197513 0.064047 2.179218 -3.586291 7.738702 0.000000 0.000000 0.000000 1.285805 2.083709 -173.189825 0.872574 2.382270 -0.552890 -1.467921 2.389977 -1.027264 0.000000 0.000000 0.000000
93.590733 25.918816 393.770370 1.771583 2.242254 169.662806 -0.975583 -0.751536 -169.635123 0.749588 1.358132 0.206593 -9.461664 -8.735451 -2.182859 0.000000 0.000000 0.000000 -5.098487 -4.527048 -0.419538 2.936312 -0.141033 1.391883 -2.315928 -0.298679 -2.889914 2.992727 2.390080 3.167505 0.000000 0.000000 0.000000 0.000000 0.000000 0.000000 -5.079439 -6.973882 -1.070312 2.264487 3.692245 -0.445294 -3.416263 -4.607938 1.530799 0.100361 9.576842 -1.623740 0.000000 0.000000 0.000000 0.000000 0.000000 0.000000 -0.551865 2.258948 -175.905856 -4.585079 0.117555 0.328092 2.396347 -4.483774 9.363665 0.000000 0.000000 0.000000 0.914902 3.167367 -169.185229 0.806555 3.450760 -1.077498 -1.708131 2.747265 -1.242910 0.000000 0.000000 0.000000
93.675137 25.871287 393.702430 1.894602 2.421072 166.150158 -1.057757 -0.943395 -166.121867 0.825542 1.553204 0.221197 -10.372332 -9.996442 -2.523707 0.000000 0.000000 0.000000 -5.666459 -5.014560 -0.557347 3.122035 -0.028152 1.224347 -2.562054 -0.676623 -2.576413 2.802204 2.315432 2.858166 0.000000 0.000000 0.000000 0.000000 0.000000 0.000000 -5.501188 -7.567739 -1.099218 2.395025 3.967658 -0.555904 -3.538631 -4.832463 1.604981 0.026680 10.214761 -1.785121 0.000000 0.000000 0.000000 0.000000 0.000000 0.000000 -0.905521 2.383052 -173.323580 -4.960237 -0.009054 0.717773 2.304083 -5.228133 10.482542 0.000000 0.000000 0.000000 0.815058 3.391424 -165.228121 1.008838 3.560142 -1.420015 -1.829685 2.894355 -1.394716 0.000000 0.000000 0.000000
93.911744 25.795575 393.577190 2.030300 2.746153 159.525980 -1.078442 -1.232717 -159.499900 0.882150 1.944403 0.224248 -10.739333 -11.670761 -2.778586 0.000000 0.000000 0.000000 -6.096021 -5.874684 -0.597351 3.046325 0.481448 -0.020035 -3.222028 -2.141913 -0.130692 1.862530 2.112393 -0.053130 0.000000 0.000000 0.000000 0.000000 0.000000 0.000000 -5.750397 -8.165857 -0.950683 2.248831 4.039407 -0.657823 -3.226353 -4.558704 1.804067 0.085744 8.765327 -1.964365 0.000000 0.000000 0.000000 0.000000 0.000000 0.000000 -1.873849 2.433074 -168.225348 -5.136198 -0.471029 1.894300 0.983342 -6.382518 11.680419 0.000000 0.000000 0.000000 0.411524 3.822592 -156.844502 1.434630 2.767078 -2.099060 -1.426321 1.689759 -1.335121 0.000000 0.000000 0.000000
94.030713 25.613393 393.846413 1.845575 2.236215 155.385236 -0.876466 -1.307657 -155.354876 0.634627 1.643634 0.195887 -9.114836 -10.465554 -2.262212 0.000000 0.000000 0.000000 -5.507989 -5.107883 -0.485463 3.576566 1.029902 -1.328371 -3.403665 -2.460866 2.432704 3.714909 2.499187 2.145699 0.000000 0.000000 0.000000 0.000000 0.000000 0.000000 -4.935089 -6.946628 -0.556752 1.878542 3.516574 -0.740330 -2.751185 -4.235586 0.773641 0.295917 9.365580 -1.791039 0.000000 0.000000 0.000000 0.000000 0.000000 0.000000 -1.197349 2.058496 -164.772087 -3.878812 -0.600957 2.606658 0.642397 -5.868641 11.378202 0.000000 0.000000 0.000000 0.429277 3.081607 -152.080994 0.674125 1.767986 -3.362523 -1.638315 3.168934 -1.797780 0.000000 0.000000 0.000000
94.426673 25.549330 393.968496 2.340527 1.948261 152.582289 -0.431948 -0.736482 -152.550830 0.659282 1.265124 0.210052 -8.372915 -9.071779 -1.944858 0.000000 0.000000 0.000000 -5.067667 -4.007675 -0.388239 1.312641 1.062536 -1.779838 -1.297716 -2.367659 3.348609 -1.312671 -0.468741 -2.418095 0.000000 0.000000 0.000000 0.000000 0.000000 0.000000 -4.672554 -5.616335 -0.426807 1.621360 2.857732 -0.756523 -2.220928 -3.249652 0.655751 1.070126 9.094761 -2.529832 0.000000 0.000000 0.000000 0.000000 0.000000 0.000000 -0.243252 2.165206 -161.385887 -4.336706 0.152925 3.829894 -1.418314 -9.140927 10.269724 0.000000 0.000000 0.000000 1.328962 2.699221 -149.000532 1.891682 2.391756 -3.343794 -2.554803 3.011093 -2.460528 0.000000 0.000000 0.000000
94.810126 25.374706 393.857233 1.888149 1.704531 153.878672 -1.127762 -0.840918 -153.811555 0.375966 0.866007 0.209664 -6.497428 -6.770261 -1.305255 0.000000 0.000000 0.000000 -5.230456 -3.077387 -0.668218 0.422350 0.698169 -0.936044 -0.109332 -1.867611 0.914854 -4.057579 -2.102221 -2.933254 0.000000 0.000000 0.000000 0.000000 0.000000 0.000000 -4.200132 -4.009972 -0.198983 1.043334 1.728749 -0.749150 -1.104694 -1.807240 -0.456670 1.202702 6.397271 -1.534749 0.000000 0.000000 0.000000 0.000000 0.000000 0.000000 -0.480836 1.745757 -161.606311 -4.502824 0.445887 3.792138 -0.900677 -11.438347 11.070486 0.000000 0.000000 0.000000 1.758306 1.718175 -149.549107 2.136858 1.868025 -4.443591 -2.518894 3.878477 -2.406217 0.000000 0.000000 0.000000
